<?xml version="1.0" encoding="UTF-8"?>
<!DOCTYPE svg PUBLIC "-//W3C//DTD SVG 1.1//EN" "http://www.w3.org/Graphics/SVG/1.1/DTD/svg11.dtd">
<svg xmlns="http://www.w3.org/2000/svg" version="1.1" width="256px" height="256px" style="shape-rendering:geometricPrecision; text-rendering:geometricPrecision; image-rendering:optimizeQuality; fill-rule:evenodd; clip-rule:evenodd" xmlns:xlink="http://www.w3.org/1999/xlink">
<g><path style="opacity:0.996" fill="#fefefe" d="M 44.5,-0.5 C 99.8333,-0.5 155.167,-0.5 210.5,-0.5C 233.833,6.16667 248.833,21.1667 255.5,44.5C 255.5,99.8333 255.5,155.167 255.5,210.5C 248.833,233.833 233.833,248.833 210.5,255.5C 155.167,255.5 99.8333,255.5 44.5,255.5C 21.1667,248.833 6.16667,233.833 -0.5,210.5C -0.5,155.167 -0.5,99.8333 -0.5,44.5C 6.16667,21.1667 21.1667,6.16667 44.5,-0.5 Z"/></g>
<g><path style="opacity:1" fill="#8edf5d" d="M 171.5,59.5 C 170.833,60.1667 170.167,60.8333 169.5,61.5C 162.641,55.8391 156.141,56.1724 150,62.5C 148.748,65.0135 148.248,67.6802 148.5,70.5C 145.421,70.7399 142.421,70.4066 139.5,69.5C 135.401,52.6179 125.401,47.7846 109.5,55C 106.962,58.3631 104.295,61.5298 101.5,64.5C 98.3429,63.3132 95.3429,63.3132 92.5,64.5C 88.6583,66.1765 85.9916,69.0098 84.5,73C 80.1667,73.3333 75.8333,73.6667 71.5,74C 68.3589,74.7146 66.3589,76.5479 65.5,79.5C 64.1667,80.1667 62.8333,80.8333 61.5,81.5C 58.5192,70.6254 62.1859,62.7921 72.5,58C 76.8206,57.501 81.1539,57.3343 85.5,57.5C 86.4391,51.2317 90.1058,48.2317 96.5,48.5C 98.5596,48.5716 100.56,48.9049 102.5,49.5C 109.112,35.9318 119.112,32.7651 132.5,40C 136.843,43.8524 139.176,48.6858 139.5,54.5C 142.249,54.2739 144.916,54.6072 147.5,55.5C 148.865,45.2854 154.532,41.1187 164.5,43C 171.66,46.4837 173.993,51.9837 171.5,59.5 Z"/></g>
<g><path style="opacity:1" fill="#7ac14f" d="M 169.5,61.5 C 170.866,69.4649 167.532,73.4649 159.5,73.5C 160.296,77.6388 158.963,80.8055 155.5,83C 150.673,82.1271 145.673,81.4604 140.5,81C 139,79.5 137.5,78 136,76.5C 133.705,78.9378 130.872,80.4378 127.5,81C 125.175,83.2906 122.842,85.6239 120.5,88C 111.81,90.7313 106.31,87.5646 104,78.5C 101.226,77.3133 98.559,75.9799 96,74.5C 95.5017,71.1832 95.335,67.8499 95.5,64.5C 94.5,64.5 93.5,64.5 92.5,64.5C 95.3429,63.3132 98.3429,63.3132 101.5,64.5C 104.295,61.5298 106.962,58.3631 109.5,55C 125.401,47.7846 135.401,52.6179 139.5,69.5C 142.421,70.4066 145.421,70.7399 148.5,70.5C 148.248,67.6802 148.748,65.0135 150,62.5C 156.141,56.1724 162.641,55.8391 169.5,61.5 Z"/></g>
<g><path style="opacity:1" fill="#5cb14f" d="M 171.5,59.5 C 181.801,59.8012 187.135,65.1345 187.5,75.5C 184.875,77.9458 182.042,80.2792 179,82.5C 180.359,92.9726 175.859,97.6393 165.5,96.5C 166.173,105.32 162.173,109.82 153.5,110C 148.994,106.527 143.994,105.527 138.5,107C 135.663,105.328 133.33,103.161 131.5,100.5C 128.276,104.779 123.943,106.945 118.5,107C 115.806,109.694 113.14,112.36 110.5,115C 97.2199,120.023 88.8866,115.523 85.5,101.5C 79.9495,102.892 76.2829,100.892 74.5,95.5C 73.8902,94.609 73.5569,93.609 73.5,92.5C 73.7704,89.6874 74.2704,87.0208 75,84.5C 72.4526,83.5266 70.9526,81.6933 70.5,79C 68.735,78.3603 67.0683,78.5269 65.5,79.5C 66.3589,76.5479 68.3589,74.7146 71.5,74C 75.8333,73.6667 80.1667,73.3333 84.5,73C 85.9916,69.0098 88.6583,66.1765 92.5,64.5C 93.5,64.5 94.5,64.5 95.5,64.5C 95.335,67.8499 95.5017,71.1832 96,74.5C 98.559,75.9799 101.226,77.3133 104,78.5C 106.31,87.5646 111.81,90.7313 120.5,88C 122.842,85.6239 125.175,83.2906 127.5,81C 130.872,80.4378 133.705,78.9378 136,76.5C 137.5,78 139,79.5 140.5,81C 145.673,81.4604 150.673,82.1271 155.5,83C 158.963,80.8055 160.296,77.6388 159.5,73.5C 167.532,73.4649 170.866,69.4649 169.5,61.5C 170.167,60.8333 170.833,60.1667 171.5,59.5 Z"/></g>
<g><path style="opacity:1" fill="#44843b" d="M 187.5,75.5 C 193.019,76.5814 197.019,79.5814 199.5,84.5C 197.633,86.9086 195.466,89.2419 193,91.5C 194.231,103.1 189.064,108.767 177.5,108.5C 178.202,119.299 173.202,124.132 162.5,123C 160.44,121.304 158.107,120.137 155.5,119.5C 148.217,121.444 142.717,119.11 139,112.5C 138.215,114.286 137.049,115.786 135.5,117C 131.289,118.71 126.956,120.043 122.5,121C 118.152,130.507 110.819,134.174 100.5,132C 92.1653,129.162 87.832,123.329 87.5,114.5C 74.9378,113.695 70.6045,107.362 74.5,95.5C 76.2829,100.892 79.9495,102.892 85.5,101.5C 88.8866,115.523 97.2199,120.023 110.5,115C 113.14,112.36 115.806,109.694 118.5,107C 123.943,106.945 128.276,104.779 131.5,100.5C 133.33,103.161 135.663,105.328 138.5,107C 143.994,105.527 148.994,106.527 153.5,110C 162.173,109.82 166.173,105.32 165.5,96.5C 175.859,97.6393 180.359,92.9726 179,82.5C 182.042,80.2792 184.875,77.9458 187.5,75.5 Z"/></g>
<g><path style="opacity:1" fill="#45863c" d="M 73.5,92.5 C 71.0246,91.3126 70.0246,89.3126 70.5,86.5C 66.5239,87.3307 62.5239,87.4973 58.5,87C 57.6195,86.2917 56.9528,85.4584 56.5,84.5C 57.8993,83.1103 59.5659,82.1103 61.5,81.5C 62.8333,80.8333 64.1667,80.1667 65.5,79.5C 67.0683,78.5269 68.735,78.3603 70.5,79C 70.9526,81.6933 72.4526,83.5266 75,84.5C 74.2704,87.0208 73.7704,89.6874 73.5,92.5 Z"/></g>
<g><path style="opacity:1" fill="#426f32" d="M 56.5,84.5 C 56.9528,85.4584 57.6195,86.2917 58.5,87C 62.5239,87.4973 66.5239,87.3307 70.5,86.5C 70.0246,89.3126 71.0246,91.3126 73.5,92.5C 73.5569,93.609 73.8902,94.609 74.5,95.5C 70.6045,107.362 74.9378,113.695 87.5,114.5C 87.832,123.329 92.1653,129.162 100.5,132C 110.819,134.174 118.152,130.507 122.5,121C 126.956,120.043 131.289,118.71 135.5,117C 137.049,115.786 138.215,114.286 139,112.5C 142.717,119.11 148.217,121.444 155.5,119.5C 158.107,120.137 160.44,121.304 162.5,123C 173.202,124.132 178.202,119.299 177.5,108.5C 189.064,108.767 194.231,103.1 193,91.5C 195.466,89.2419 197.633,86.9086 199.5,84.5C 205.031,94.989 202.698,103.489 192.5,110C 194.083,121.257 189.083,126.757 177.5,126.5C 178.802,135.192 175.136,140.192 166.5,141.5C 165.833,141.5 165.167,141.5 164.5,141.5C 162.079,141.122 159.746,140.455 157.5,139.5C 149.936,140.276 143.936,137.609 139.5,131.5C 139.565,131.062 139.399,130.728 139,130.5C 135.205,135.815 130.038,138.648 123.5,139C 121.393,140.264 120.393,142.097 120.5,144.5C 119.833,144.5 119.5,144.833 119.5,145.5C 115.267,148.279 110.6,149.945 105.5,150.5C 102.763,150.599 100.096,150.265 97.5,149.5C 97.5,148.833 97.1667,148.5 96.5,148.5C 90.9591,144.619 87.9591,139.286 87.5,132.5C 74.5036,132.186 70.1703,125.853 74.5,113.5C 73.9524,111.444 72.7858,109.777 71,108.5C 70.51,107.207 70.3433,105.873 70.5,104.5C 54.4384,107.274 48.9384,100.941 54,85.5C 54.6708,84.7476 55.5041,84.4142 56.5,84.5 Z"/></g>
<g><path style="opacity:1" fill="#986a48" d="M 139.5,131.5 C 139.5,136.833 139.5,142.167 139.5,147.5C 138.833,147.5 138.167,147.5 137.5,147.5C 136.833,147.5 136.167,147.5 135.5,147.5C 134.167,147.833 132.833,148.167 131.5,148.5C 126.906,149.343 123.239,148.009 120.5,144.5C 120.393,142.097 121.393,140.264 123.5,139C 130.038,138.648 135.205,135.815 139,130.5C 139.399,130.728 139.565,131.062 139.5,131.5 Z"/></g>
<g><path style="opacity:1" fill="#fafbf9" d="M 139.5,131.5 C 143.936,137.609 149.936,140.276 157.5,139.5C 158.593,152.061 152.926,156.728 140.5,153.5C 140.483,151.435 140.15,149.435 139.5,147.5C 139.5,142.167 139.5,136.833 139.5,131.5 Z"/></g>
<g><path style="opacity:1" fill="#74462a" d="M 157.5,139.5 C 159.746,140.455 162.079,141.122 164.5,141.5C 165.341,143.379 165.675,145.379 165.5,147.5C 164.127,147.343 162.793,147.51 161.5,148C 160.044,150.266 159.21,152.766 159,155.5C 155.864,157.32 152.864,159.32 150,161.5C 149.505,164.531 149.671,167.531 150.5,170.5C 148.815,172.818 146.481,173.818 143.5,173.5C 142.241,166.873 141.241,160.207 140.5,153.5C 152.926,156.728 158.593,152.061 157.5,139.5 Z"/></g>
<g><path style="opacity:1" fill="#f8f8f6" d="M 119.5,145.5 C 119.038,150.162 118.538,154.829 118,159.5C 117.29,160.973 116.124,161.64 114.5,161.5C 107.479,161.144 104.479,157.478 105.5,150.5C 110.6,149.945 115.267,148.279 119.5,145.5 Z"/></g>
<g><path style="opacity:1" fill="#ab8051" d="M 120.5,144.5 C 123.239,148.009 126.906,149.343 131.5,148.5C 131.5,148.833 131.5,149.167 131.5,149.5C 130.5,149.5 129.5,149.5 128.5,149.5C 126.612,151.988 125.945,154.988 126.5,158.5C 123.692,174.586 122.192,190.92 122,207.5C 122.377,208.942 123.21,209.942 124.5,210.5C 124.5,211.167 124.833,211.5 125.5,211.5C 129.355,214.035 133.688,215.035 138.5,214.5C 138.833,214.5 139.167,214.5 139.5,214.5C 142.167,214.167 144.833,213.833 147.5,213.5C 147.5,215.167 147.5,216.833 147.5,218.5C 147.084,220.752 145.751,222.252 143.5,223C 134.5,223.667 125.5,223.667 116.5,223C 114.714,222.215 113.214,221.049 112,219.5C 113.173,204.139 114.673,188.806 116.5,173.5C 119.689,168.627 119.023,164.627 114.5,161.5C 116.124,161.64 117.29,160.973 118,159.5C 118.538,154.829 119.038,150.162 119.5,145.5C 119.5,144.833 119.833,144.5 120.5,144.5 Z"/></g>
<g><path style="opacity:1" fill="#c1945d" d="M 135.5,147.5 C 137.958,169.46 139.958,191.46 141.5,213.5C 141.833,212.667 142.167,211.833 142.5,211C 140.923,189.824 139.257,168.658 137.5,147.5C 138.167,147.5 138.833,147.5 139.5,147.5C 140.15,149.435 140.483,151.435 140.5,153.5C 141.241,160.207 142.241,166.873 143.5,173.5C 142.957,174.742 142.623,176.075 142.5,177.5C 144.779,190.118 146.779,202.785 148.5,215.5C 148.48,216.726 148.147,217.726 147.5,218.5C 147.5,216.833 147.5,215.167 147.5,213.5C 144.833,213.833 142.167,214.167 139.5,214.5C 136.241,195.317 134.241,175.984 133.5,156.5C 133.471,153.731 132.805,151.397 131.5,149.5C 131.5,149.167 131.5,148.833 131.5,148.5C 132.833,148.167 134.167,147.833 135.5,147.5 Z"/></g>
<g><path style="opacity:1" fill="#9a6a4a" d="M 164.5,141.5 C 165.167,141.5 165.833,141.5 166.5,141.5C 166.666,147.176 166.499,152.843 166,158.5C 163.99,166.436 158.823,170.436 150.5,170.5C 149.671,167.531 149.505,164.531 150,161.5C 152.864,159.32 155.864,157.32 159,155.5C 159.21,152.766 160.044,150.266 161.5,148C 162.793,147.51 164.127,147.343 165.5,147.5C 165.675,145.379 165.341,143.379 164.5,141.5 Z"/></g>
<g><path style="opacity:1" fill="#734529" d="M 97.5,149.5 C 100.096,150.265 102.763,150.599 105.5,150.5C 104.479,157.478 107.479,161.144 114.5,161.5C 119.023,164.627 119.689,168.627 116.5,173.5C 114.03,173.346 112.03,172.346 110.5,170.5C 110.657,169.127 110.49,167.793 110,166.5C 107.667,164.833 105.333,163.167 103,161.5C 103.026,157.695 101.192,155.695 97.5,155.5C 97.5,153.5 97.5,151.5 97.5,149.5 Z"/></g>
<g><path style="opacity:1" fill="#bf9359" d="M 128.5,149.5 C 129.5,149.5 130.5,149.5 131.5,149.5C 132.055,171.444 134.389,193.11 138.5,214.5C 133.688,215.035 129.355,214.035 125.5,211.5C 126.117,211.389 126.617,211.056 127,210.5C 128.221,190.185 128.721,169.852 128.5,149.5 Z"/></g>
<g><path style="opacity:1" fill="#9c6e4f" d="M 96.5,148.5 C 97.1667,148.5 97.5,148.833 97.5,149.5C 97.5,151.5 97.5,153.5 97.5,155.5C 101.192,155.695 103.026,157.695 103,161.5C 105.333,163.167 107.667,164.833 110,166.5C 110.49,167.793 110.657,169.127 110.5,170.5C 106.113,169.539 102.279,167.539 99,164.5C 97.1968,159.318 96.3635,153.984 96.5,148.5 Z"/></g>
<g><path style="opacity:1" fill="#e8b16d" d="M 135.5,147.5 C 136.167,147.5 136.833,147.5 137.5,147.5C 139.257,168.658 140.923,189.824 142.5,211C 142.167,211.833 141.833,212.667 141.5,213.5C 139.958,191.46 137.958,169.46 135.5,147.5 Z"/></g>
<g><path style="opacity:1" fill="#bd9058" d="M 126.5,158.5 C 126.637,175.873 125.97,193.206 124.5,210.5C 123.21,209.942 122.377,208.942 122,207.5C 122.192,190.92 123.692,174.586 126.5,158.5 Z"/></g>
<g><path style="opacity:1" fill="#e4af6b" d="M 131.5,149.5 C 132.805,151.397 133.471,153.731 133.5,156.5C 134.241,175.984 136.241,195.317 139.5,214.5C 139.167,214.5 138.833,214.5 138.5,214.5C 134.389,193.11 132.055,171.444 131.5,149.5 Z"/></g>
<g><path style="opacity:1" fill="#e1ae6d" d="M 128.5,149.5 C 128.721,169.852 128.221,190.185 127,210.5C 126.617,211.056 126.117,211.389 125.5,211.5C 124.833,211.5 124.5,211.167 124.5,210.5C 125.97,193.206 126.637,175.873 126.5,158.5C 125.945,154.988 126.612,151.988 128.5,149.5 Z"/></g>
</svg>
