<?xml version="1.0" encoding="UTF-8"?>
<!DOCTYPE svg PUBLIC "-//W3C//DTD SVG 1.1//EN" "http://www.w3.org/Graphics/SVG/1.1/DTD/svg11.dtd">
<svg xmlns="http://www.w3.org/2000/svg" version="1.1" width="256px" height="256px" style="shape-rendering:geometricPrecision; text-rendering:geometricPrecision; image-rendering:optimizeQuality; fill-rule:evenodd; clip-rule:evenodd" xmlns:xlink="http://www.w3.org/1999/xlink">
<g><path style="opacity:0.944" fill="#8cde5a" d="M 171.5,59.5 C 171.167,60.5 170.5,61.1667 169.5,61.5C 162.641,55.8391 156.141,56.1724 150,62.5C 148.748,65.0135 148.248,67.6802 148.5,70.5C 145.421,70.7399 142.421,70.4066 139.5,69.5C 135.401,52.6179 125.401,47.7846 109.5,55C 106.962,58.3631 104.295,61.5298 101.5,64.5C 98.6731,63.3369 96.0065,63.3369 93.5,64.5C 89.0781,65.7533 86.0781,68.5866 84.5,73C 80.1667,73.3333 75.8333,73.6667 71.5,74C 68.3589,74.7146 66.3589,76.5479 65.5,79.5C 63.9505,80.4408 62.2838,81.1075 60.5,81.5C 58.8289,64.167 66.8289,55.8337 84.5,56.5C 87.9072,48.7456 93.7405,46.0789 102,48.5C 108.338,36.5371 117.838,33.0371 130.5,38C 136.099,41.8551 139.433,47.1884 140.5,54C 142.81,54.4966 145.143,54.6633 147.5,54.5C 149.643,42.3962 156.31,38.8962 167.5,44C 172.398,48.2231 173.731,53.3898 171.5,59.5 Z"/></g>
<g><path style="opacity:1" fill="#7ac14f" d="M 169.5,61.5 C 170.866,69.4649 167.532,73.4649 159.5,73.5C 160.296,77.6388 158.963,80.8055 155.5,83C 150.673,82.1271 145.673,81.4604 140.5,81C 139,79.5 137.5,78 136,76.5C 133.705,78.9378 130.872,80.4378 127.5,81C 125.175,83.2906 122.842,85.6239 120.5,88C 111.81,90.7313 106.31,87.5646 104,78.5C 101.226,77.3133 98.559,75.9799 96,74.5C 96.0835,70.6887 95.2501,67.3554 93.5,64.5C 96.0065,63.3369 98.6731,63.3369 101.5,64.5C 104.295,61.5298 106.962,58.3631 109.5,55C 125.401,47.7846 135.401,52.6179 139.5,69.5C 142.421,70.4066 145.421,70.7399 148.5,70.5C 148.248,67.6802 148.748,65.0135 150,62.5C 156.141,56.1724 162.641,55.8391 169.5,61.5 Z"/></g>
<g><path style="opacity:0.995" fill="#5bb14e" d="M 171.5,59.5 C 182.006,59.0734 187.34,64.0734 187.5,74.5C 185.193,77.6381 182.359,80.3048 179,82.5C 180.359,92.9726 175.859,97.6393 165.5,96.5C 166.173,105.32 162.173,109.82 153.5,110C 148.994,106.527 143.994,105.527 138.5,107C 135.663,105.328 133.33,103.161 131.5,100.5C 128.276,104.779 123.943,106.945 118.5,107C 115.806,109.694 113.14,112.36 110.5,115C 97.2199,120.023 88.8866,115.523 85.5,101.5C 79.9495,102.892 76.2829,100.892 74.5,95.5C 73.8902,94.609 73.5569,93.609 73.5,92.5C 73.7704,89.6874 74.2704,87.0208 75,84.5C 72.4526,83.5266 70.9526,81.6933 70.5,79C 68.735,78.3603 67.0683,78.5269 65.5,79.5C 66.3589,76.5479 68.3589,74.7146 71.5,74C 75.8333,73.6667 80.1667,73.3333 84.5,73C 86.0781,68.5866 89.0781,65.7533 93.5,64.5C 95.2501,67.3554 96.0835,70.6887 96,74.5C 98.559,75.9799 101.226,77.3133 104,78.5C 106.31,87.5646 111.81,90.7313 120.5,88C 122.842,85.6239 125.175,83.2906 127.5,81C 130.872,80.4378 133.705,78.9378 136,76.5C 137.5,78 139,79.5 140.5,81C 145.673,81.4604 150.673,82.1271 155.5,83C 158.963,80.8055 160.296,77.6388 159.5,73.5C 167.532,73.4649 170.866,69.4649 169.5,61.5C 170.5,61.1667 171.167,60.5 171.5,59.5 Z"/></g>
<g><path style="opacity:0.994" fill="#44843b" d="M 187.5,74.5 C 193.702,76.0819 198.035,79.7486 200.5,85.5C 197.586,86.9061 195.086,88.9061 193,91.5C 194.231,103.1 189.064,108.767 177.5,108.5C 178.202,119.299 173.202,124.132 162.5,123C 160.44,121.304 158.107,120.137 155.5,119.5C 148.217,121.444 142.717,119.11 139,112.5C 138.215,114.286 137.049,115.786 135.5,117C 131.289,118.71 126.956,120.043 122.5,121C 118.152,130.507 110.819,134.174 100.5,132C 92.1653,129.162 87.832,123.329 87.5,114.5C 74.9378,113.695 70.6045,107.362 74.5,95.5C 76.2829,100.892 79.9495,102.892 85.5,101.5C 88.8866,115.523 97.2199,120.023 110.5,115C 113.14,112.36 115.806,109.694 118.5,107C 123.943,106.945 128.276,104.779 131.5,100.5C 133.33,103.161 135.663,105.328 138.5,107C 143.994,105.527 148.994,106.527 153.5,110C 162.173,109.82 166.173,105.32 165.5,96.5C 175.859,97.6393 180.359,92.9726 179,82.5C 182.359,80.3048 185.193,77.6381 187.5,74.5 Z"/></g>
<g><path style="opacity:0.973" fill="#44853b" d="M 73.5,92.5 C 71.0246,91.3126 70.0246,89.3126 70.5,86.5C 66.5239,87.3307 62.5239,87.4973 58.5,87C 57.1772,86.1841 56.5106,85.0174 56.5,83.5C 57.6049,82.3995 58.9382,81.7329 60.5,81.5C 62.2838,81.1075 63.9505,80.4408 65.5,79.5C 67.0683,78.5269 68.735,78.3603 70.5,79C 70.9526,81.6933 72.4526,83.5266 75,84.5C 74.2704,87.0208 73.7704,89.6874 73.5,92.5 Z"/></g>
<g><path style="opacity:0.966" fill="#406e31" d="M 56.5,83.5 C 56.5106,85.0174 57.1772,86.1841 58.5,87C 62.5239,87.4973 66.5239,87.3307 70.5,86.5C 70.0246,89.3126 71.0246,91.3126 73.5,92.5C 73.5569,93.609 73.8902,94.609 74.5,95.5C 70.6045,107.362 74.9378,113.695 87.5,114.5C 87.832,123.329 92.1653,129.162 100.5,132C 110.819,134.174 118.152,130.507 122.5,121C 126.956,120.043 131.289,118.71 135.5,117C 137.049,115.786 138.215,114.286 139,112.5C 142.717,119.11 148.217,121.444 155.5,119.5C 158.107,120.137 160.44,121.304 162.5,123C 173.202,124.132 178.202,119.299 177.5,108.5C 189.064,108.767 194.231,103.1 193,91.5C 195.086,88.9061 197.586,86.9061 200.5,85.5C 204.749,95.1904 202.583,103.19 194,109.5C 195.068,120.929 189.901,126.929 178.5,127.5C 178.965,136.038 174.965,141.038 166.5,142.5C 163.557,141.633 160.557,140.633 157.5,139.5C 149.936,140.276 143.936,137.609 139.5,131.5C 139.565,131.062 139.399,130.728 139,130.5C 134.869,135.983 129.369,138.983 122.5,139.5C 121.05,140.85 120.383,142.516 120.5,144.5C 119.508,144.328 118.842,144.662 118.5,145.5C 114.725,148.537 110.392,150.204 105.5,150.5C 102.455,150.492 99.4552,150.159 96.5,149.5C 91.1753,145.539 87.842,140.206 86.5,133.5C 73.1089,132.222 69.1089,125.388 74.5,113C 72.2589,111.261 70.5922,109.094 69.5,106.5C 67.3052,105.231 65.1385,105.231 63,106.5C 55.0961,105.559 50.9294,101.059 50.5,93C 51.2066,90.4803 52.04,87.9803 53,85.5C 53.8159,84.1772 54.9826,83.5106 56.5,83.5 Z"/></g>
<g><path style="opacity:1" fill="#986a48" d="M 139.5,131.5 C 139.5,136.833 139.5,142.167 139.5,147.5C 138.833,147.5 138.167,147.5 137.5,147.5C 136.833,147.5 136.167,147.5 135.5,147.5C 134.167,147.833 132.833,148.167 131.5,148.5C 126.906,149.343 123.239,148.009 120.5,144.5C 120.383,142.516 121.05,140.85 122.5,139.5C 129.369,138.983 134.869,135.983 139,130.5C 139.399,130.728 139.565,131.062 139.5,131.5 Z"/></g>
<g><path style="opacity:1" fill="#fafbf9" d="M 139.5,131.5 C 143.936,137.609 149.936,140.276 157.5,139.5C 158.593,152.061 152.926,156.728 140.5,153.5C 140.483,151.435 140.15,149.435 139.5,147.5C 139.5,142.167 139.5,136.833 139.5,131.5 Z"/></g>
<g><path style="opacity:0.978" fill="#744629" d="M 157.5,139.5 C 160.557,140.633 163.557,141.633 166.5,142.5C 165.549,143.919 165.216,145.585 165.5,147.5C 164.127,147.343 162.793,147.51 161.5,148C 160.044,150.266 159.21,152.766 159,155.5C 155.864,157.32 152.864,159.32 150,161.5C 149.31,165.026 149.81,168.36 151.5,171.5C 149.046,173.06 146.38,174.06 143.5,174.5C 142.37,167.517 141.37,160.517 140.5,153.5C 152.926,156.728 158.593,152.061 157.5,139.5 Z"/></g>
<g><path style="opacity:1" fill="#f8f8f6" d="M 118.5,145.5 C 119.139,146.097 119.472,146.93 119.5,148C 118.854,151.812 118.354,155.646 118,159.5C 117.29,160.973 116.124,161.64 114.5,161.5C 107.479,161.144 104.479,157.478 105.5,150.5C 110.392,150.204 114.725,148.537 118.5,145.5 Z"/></g>
<g><path style="opacity:0.95" fill="#aa7e4e" d="M 118.5,145.5 C 118.842,144.662 119.508,144.328 120.5,144.5C 123.239,148.009 126.906,149.343 131.5,148.5C 131.5,148.833 131.5,149.167 131.5,149.5C 130.5,149.5 129.5,149.5 128.5,149.5C 126.656,151.279 125.99,153.612 126.5,156.5C 123.825,173.267 122.325,190.267 122,207.5C 122.377,208.942 123.21,209.942 124.5,210.5C 125.167,210.5 125.5,210.833 125.5,211.5C 129.355,214.035 133.688,215.035 138.5,214.5C 138.833,214.5 139.167,214.5 139.5,214.5C 142.482,214.037 145.482,213.704 148.5,213.5C 149.186,217.287 148.186,220.454 145.5,223C 135.5,223.667 125.5,223.667 115.5,223C 114.069,222.535 112.903,221.701 112,220.5C 111.356,210.026 112.356,199.692 115,189.5C 115.499,184.511 115.666,179.511 115.5,174.5C 119.831,169.56 119.498,165.227 114.5,161.5C 116.124,161.64 117.29,160.973 118,159.5C 118.354,155.646 118.854,151.812 119.5,148C 119.472,146.93 119.139,146.097 118.5,145.5 Z"/></g>
<g><path style="opacity:0.936" fill="#996848" d="M 166.5,142.5 C 166.666,148.509 166.499,154.509 166,160.5C 165.332,164.499 163.165,167.332 159.5,169C 156.798,169.84 154.132,170.673 151.5,171.5C 149.81,168.36 149.31,165.026 150,161.5C 152.864,159.32 155.864,157.32 159,155.5C 159.21,152.766 160.044,150.266 161.5,148C 162.793,147.51 164.127,147.343 165.5,147.5C 165.216,145.585 165.549,143.919 166.5,142.5 Z"/></g>
<g><path style="opacity:0.911" fill="#bf925a" d="M 135.5,147.5 C 137.958,169.46 139.958,191.46 141.5,213.5C 141.833,212.667 142.167,211.833 142.5,211C 140.923,189.824 139.257,168.658 137.5,147.5C 138.167,147.5 138.833,147.5 139.5,147.5C 140.15,149.435 140.483,151.435 140.5,153.5C 141.37,160.517 142.37,167.517 143.5,174.5C 143.586,175.496 143.252,176.329 142.5,177C 145.073,189.038 147.073,201.205 148.5,213.5C 145.482,213.704 142.482,214.037 139.5,214.5C 136.241,195.317 134.241,175.984 133.5,156.5C 133.471,153.731 132.805,151.397 131.5,149.5C 131.5,149.167 131.5,148.833 131.5,148.5C 132.833,148.167 134.167,147.833 135.5,147.5 Z"/></g>
<g><path style="opacity:0.969" fill="#734428" d="M 96.5,149.5 C 99.4552,150.159 102.455,150.492 105.5,150.5C 104.479,157.478 107.479,161.144 114.5,161.5C 119.498,165.227 119.831,169.56 115.5,174.5C 113.668,173.752 112.001,172.752 110.5,171.5C 110.66,169.801 110.494,168.134 110,166.5C 107.667,164.833 105.333,163.167 103,161.5C 102.883,157.215 100.717,155.215 96.5,155.5C 96.5,153.5 96.5,151.5 96.5,149.5 Z"/></g>
<g><path style="opacity:1" fill="#bf9259" d="M 128.5,149.5 C 129.5,149.5 130.5,149.5 131.5,149.5C 132.532,162.79 133.365,176.124 134,189.5C 134.813,198.031 136.313,206.365 138.5,214.5C 133.688,215.035 129.355,214.035 125.5,211.5C 126.117,211.389 126.617,211.056 127,210.5C 128.319,190.19 128.819,169.857 128.5,149.5 Z"/></g>
<g><path style="opacity:0.859" fill="#986848" d="M 96.5,155.5 C 100.717,155.215 102.883,157.215 103,161.5C 105.333,163.167 107.667,164.833 110,166.5C 110.494,168.134 110.66,169.801 110.5,171.5C 105.827,170.08 101.66,167.747 98,164.5C 97.0467,161.568 96.5467,158.568 96.5,155.5 Z"/></g>
<g><path style="opacity:0.982" fill="#e2ac69" d="M 128.5,149.5 C 128.819,169.857 128.319,190.19 127,210.5C 126.617,211.056 126.117,211.389 125.5,211.5C 125.5,210.833 125.167,210.5 124.5,210.5C 126.004,192.54 126.671,174.54 126.5,156.5C 125.99,153.612 126.656,151.279 128.5,149.5 Z"/></g>
<g><path style="opacity:0.986" fill="#e8b16c" d="M 135.5,147.5 C 136.167,147.5 136.833,147.5 137.5,147.5C 139.257,168.658 140.923,189.824 142.5,211C 142.167,211.833 141.833,212.667 141.5,213.5C 139.958,191.46 137.958,169.46 135.5,147.5 Z"/></g>
<g><path style="opacity:1" fill="#bc9057" d="M 126.5,156.5 C 126.671,174.54 126.004,192.54 124.5,210.5C 123.21,209.942 122.377,208.942 122,207.5C 122.325,190.267 123.825,173.267 126.5,156.5 Z"/></g>
<g><path style="opacity:0.976" fill="#e4ae6a" d="M 131.5,149.5 C 132.805,151.397 133.471,153.731 133.5,156.5C 134.241,175.984 136.241,195.317 139.5,214.5C 139.167,214.5 138.833,214.5 138.5,214.5C 136.313,206.365 134.813,198.031 134,189.5C 133.365,176.124 132.532,162.79 131.5,149.5 Z"/></g>
</svg>
